<svg width="14" height="4" viewBox="0 0 14 4" fill="none" xmlns="http://www.w3.org/2000/svg">
<path d="M0.5 0C0.776142 0 1 0.223858 1 0.5V3.5C1 3.77614 0.776142 4 0.5 4C0.223858 4 0 3.77614 0 3.5V0.5C0 0.223858 0.223858 0 0.5 0ZM4.5 0C4.77614 0 5 0.223858 5 0.5C5 0.776142 4.77614 1 4.5 1H3.25C3.11193 1 3 1.11193 3 1.25C3 1.38807 3.11193 1.5 3.25 1.5H3.75C4.44036 1.5 5 2.05964 5 2.75C5 3.44036 4.44036 4 3.75 4H2.5C2.22386 4 2 3.77614 2 3.5C2 3.22386 2.22386 3 2.5 3H3.75C3.88807 3 4 2.88807 4 2.75C4 2.61193 3.88807 2.5 3.75 2.5H3.25C2.55964 2.5 2 1.94036 2 1.25C2 0.559644 2.55964 0 3.25 0H4.5ZM8.5 0C8.77614 0 9 0.223858 9 0.5C9 0.776142 8.77614 1 8.5 1H7.25C7.11193 1 7 1.11193 7 1.25C7 1.38807 7.11193 1.5 7.25 1.5H7.75C8.44036 1.5 9 2.05964 9 2.75C9 3.44036 8.44036 4 7.75 4H6.5C6.22386 4 6 3.77614 6 3.5C6 3.22386 6.22386 3 6.5 3H7.75C7.88807 3 8 2.88807 8 2.75C8 2.61193 7.88807 2.5 7.75 2.5H7.25C6.55964 2.5 6 1.94036 6 1.25C6 0.559644 6.55964 0 7.25 0H8.5ZM13.5 0C13.7761 0 14 0.223858 14 0.5V3.5C14 3.77614 13.7761 4 13.5 4C13.2963 4 13.1219 3.87785 13.0439 3.70312C12.7398 3.88998 12.3832 4 12 4C10.8954 4 10 3.10457 10 2C10 0.895431 10.8954 0 12 0C12.383 0 12.7399 0.109213 13.0439 0.295898C13.1221 0.121607 13.2966 0 13.5 0ZM12 1C11.4477 1 11 1.44772 11 2C11 2.55228 11.4477 3 12 3C12.5523 3 13 2.55228 13 2C13 1.44772 12.5523 1 12 1Z" fill="url(#paint0_linear_18_18)"/>
<defs>
<linearGradient id="paint0_linear_18_18" x1="0.5" y1="1.5" x2="0.5" y2="2.5" gradientUnits="userSpaceOnUse">
<stop stop-color="#F88040"/>
<stop offset="1" stop-color="#F86540"/>
</linearGradient>
</defs>
</svg>
