<svg width="14" height="4" viewBox="0 0 14 4" fill="none" xmlns="http://www.w3.org/2000/svg">
<path d="M1 4H0V0H1V4ZM5 1H3.25C3.11193 1 3 1.11193 3 1.25C3 1.38807 3.11193 1.5 3.25 1.5H3.75C4.44036 1.5 5 2.05964 5 2.75C5 3.44036 4.44036 4 3.75 4H2V3H3.75C3.88807 3 4 2.88807 4 2.75C4 2.61193 3.88807 2.5 3.75 2.5H3.25C2.55964 2.5 2 1.94036 2 1.25C2 0.559644 2.55964 0 3.25 0H5V1ZM9 1H7.25C7.11193 1 7 1.11193 7 1.25C7 1.38807 7.11193 1.5 7.25 1.5H7.75C8.44036 1.5 9 2.05964 9 2.75C9 3.44036 8.44036 4 7.75 4H6V3H7.75C7.88807 3 8 2.88807 8 2.75C8 2.61193 7.88807 2.5 7.75 2.5H7.25C6.55964 2.5 6 1.94036 6 1.25C6 0.559644 6.55964 0 7.25 0H9V1ZM14 4H13V3.72949C12.7055 3.90012 12.3648 4 12 4C10.8954 4 10 3.10457 10 2C10 0.895431 10.8954 0 12 0C12.3646 0 12.7056 0.0990558 13 0.269531V0H14V4ZM12 1C11.4477 1 11 1.44772 11 2C11 2.55228 11.4477 3 12 3C12.5523 3 13 2.55228 13 2C13 1.44772 12.5523 1 12 1Z" fill="url(#paint0_linear_18_18)"/>
<defs>
<linearGradient id="paint0_linear_18_18" x1="0.5" y1="1.5" x2="0.5" y2="2.5" gradientUnits="userSpaceOnUse">
<stop stop-color="#F88040"/>
<stop offset="1" stop-color="#F86540"/>
</linearGradient>
</defs>
</svg>
