<svg width="13" height="4" viewBox="0 0 13 4" fill="none" xmlns="http://www.w3.org/2000/svg">
<path d="M1 4H0V0H1V4ZM8 1H3.25C3.11193 1 3 1.11193 3 1.25C3 1.38807 3.11193 1.5 3.25 1.5H6.75C7.44036 1.5 8 2.05964 8 2.75C8 3.44036 7.44036 4 6.75 4H2V3H6.75C6.88807 3 7 2.88807 7 2.75C7 2.61193 6.88807 2.5 6.75 2.5H3.25C2.55964 2.5 2 1.94036 2 1.25C2 0.559644 2.55964 0 3.25 0H8V1ZM13 4H12V3.72949C11.7055 3.90012 11.3648 4 11 4C9.89543 4 9 3.10457 9 2C9 0.895431 9.89543 0 11 0C11.3646 0 11.7056 0.0990558 12 0.269531V0H13V4ZM11 1C10.4477 1 10 1.44772 10 2C10 2.55228 10.4477 3 11 3C11.5523 3 12 2.55228 12 2C12 1.44772 11.5523 1 11 1Z" fill="url(#paint0_linear_18_18)"/>
<defs>
<linearGradient id="paint0_linear_18_18" x1="0.5" y1="1.5" x2="0.5" y2="2.5" gradientUnits="userSpaceOnUse">
<stop stop-color="#F88040"/>
<stop offset="1" stop-color="#F86540"/>
</linearGradient>
</defs>
</svg>
