<svg width="23" height="7" viewBox="0 0 23 7" fill="none" xmlns="http://www.w3.org/2000/svg">
<path d="M1.68 0.108V6.756H0V0.108H1.68Z" fill="#703AE8"/>
<path d="M5.88384 6.864C5.33984 6.864 4.85184 6.768 4.41984 6.576C3.98784 6.376 3.64384 6.108 3.38784 5.772C3.13984 5.436 3.00384 5.064 2.97984 4.656H4.67184C4.70384 4.912 4.82784 5.124 5.04384 5.292C5.26784 5.46 5.54384 5.544 5.87184 5.544C6.19184 5.544 6.43984 5.48 6.61584 5.352C6.79984 5.224 6.89184 5.06 6.89184 4.86C6.89184 4.644 6.77984 4.484 6.55584 4.38C6.33984 4.268 5.99184 4.148 5.51184 4.02C5.01584 3.9 4.60784 3.776 4.28784 3.648C3.97584 3.52 3.70384 3.324 3.47184 3.06C3.24784 2.796 3.13584 2.44 3.13584 1.992C3.13584 1.624 3.23984 1.288 3.44784 0.984C3.66384 0.68 3.96784 0.44 4.35984 0.264C4.75984 0.0880001 5.22784 0 5.76384 0C6.55584 0 7.18784 0.2 7.65984 0.6C8.13184 0.992 8.39184 1.524 8.43984 2.196H6.83184C6.80784 1.932 6.69584 1.724 6.49584 1.572C6.30384 1.412 6.04384 1.332 5.71584 1.332C5.41184 1.332 5.17584 1.388 5.00784 1.5C4.84784 1.612 4.76784 1.768 4.76784 1.968C4.76784 2.192 4.87984 2.364 5.10384 2.484C5.32784 2.596 5.67584 2.712 6.14784 2.832C6.62784 2.952 7.02384 3.076 7.33584 3.204C7.64784 3.332 7.91584 3.532 8.13984 3.804C8.37184 4.068 8.49184 4.42 8.49984 4.86C8.49984 5.244 8.39184 5.588 8.17584 5.892C7.96784 6.196 7.66384 6.436 7.26384 6.612C6.87184 6.78 6.41184 6.864 5.88384 6.864Z" fill="#703AE8"/>
<path d="M12.4229 6.864C11.8789 6.864 11.3909 6.768 10.9589 6.576C10.5269 6.376 10.1829 6.108 9.92691 5.772C9.67891 5.436 9.54291 5.064 9.51891 4.656H11.2109C11.2429 4.912 11.3669 5.124 11.5829 5.292C11.8069 5.46 12.0829 5.544 12.4109 5.544C12.7309 5.544 12.9789 5.48 13.1549 5.352C13.3389 5.224 13.4309 5.06 13.4309 4.86C13.4309 4.644 13.3189 4.484 13.0949 4.38C12.8789 4.268 12.5309 4.148 12.0509 4.02C11.5549 3.9 11.1469 3.776 10.8269 3.648C10.5149 3.52 10.2429 3.324 10.0109 3.06C9.78691 2.796 9.67491 2.44 9.67491 1.992C9.67491 1.624 9.77891 1.288 9.98691 0.984C10.2029 0.68 10.5069 0.44 10.8989 0.264C11.2989 0.0880001 11.7669 0 12.3029 0C13.0949 0 13.7269 0.2 14.1989 0.6C14.6709 0.992 14.9309 1.524 14.9789 2.196H13.3709C13.3469 1.932 13.2349 1.724 13.0349 1.572C12.8429 1.412 12.5829 1.332 12.2549 1.332C11.9509 1.332 11.7149 1.388 11.5469 1.5C11.3869 1.612 11.3069 1.768 11.3069 1.968C11.3069 2.192 11.4189 2.364 11.6429 2.484C11.8669 2.596 12.2149 2.712 12.6869 2.832C13.1669 2.952 13.5629 3.076 13.8749 3.204C14.1869 3.332 14.4549 3.532 14.6789 3.804C14.9109 4.068 15.0309 4.42 15.0389 4.86C15.0389 5.244 14.9309 5.588 14.7149 5.892C14.5069 6.196 14.2029 6.436 13.8029 6.612C13.4109 6.78 12.9509 6.864 12.4229 6.864Z" fill="#703AE8"/>
<path d="M15.986 3.408C15.986 2.736 16.118 2.14 16.382 1.62C16.654 1.1 17.018 0.7 17.474 0.42C17.938 0.14 18.454 0 19.022 0C19.518 0 19.95 0.0999999 20.318 0.3C20.694 0.5 20.994 0.752 21.218 1.056V0.108H22.91V6.756H21.218V5.784C21.002 6.096 20.702 6.356 20.318 6.564C19.942 6.764 19.506 6.864 19.01 6.864C18.45 6.864 17.938 6.72 17.474 6.432C17.018 6.144 16.654 5.74 16.382 5.22C16.118 4.692 15.986 4.088 15.986 3.408ZM21.218 3.432C21.218 3.024 21.138 2.676 20.978 2.388C20.818 2.092 20.602 1.868 20.33 1.716C20.058 1.556 19.766 1.476 19.454 1.476C19.142 1.476 18.854 1.552 18.59 1.704C18.326 1.856 18.11 2.08 17.942 2.376C17.782 2.664 17.702 3.008 17.702 3.408C17.702 3.808 17.782 4.16 17.942 4.464C18.11 4.76 18.326 4.988 18.59 5.148C18.862 5.308 19.15 5.388 19.454 5.388C19.766 5.388 20.058 5.312 20.33 5.16C20.602 5 20.818 4.776 20.978 4.488C21.138 4.192 21.218 3.84 21.218 3.432Z" fill="#703AE8"/>
</svg>
